# xmcd
#
# Track frame offsets:
# 150
# 15193
# 30960
# 46030
# 57311
# 67561
# 81322
# 96922
# 109485
# 119596
# 137397
# 151492
# 161658
# 182385
#
# Disc length: 2581 seconds
#
#
# Revision: 0
# Processed by: cddbd v1.5.2PL0 Copyright (c) Steve Scherf et al.
# Submitted via: FreeRIP 2.96 
#
DISCID=a20a130e
DTITLE=Christian Country Witnesses - Home Cooking
DYEAR=2003
DGENRE=Gospel
TTITLE0=Home Cooking
TTITLE1=Antioch church house choir
TTITLE2=I'm gonna sing
TTITLE3=When Jesus Comes
TTITLE4=He said peace
TTITLE5=I'll fly away
TTITLE6=Wings of a dove
TTITLE7=Joy in the journey
TTITLE8=He's saving the best for last
TTITLE9=Life's railway to heaven
TTITLE10=I saw the light
TTITLE11=Build on amazing grace
TTITLE12=Sweet Beulah Land
TTITLE13=Take me home country roads
EXTD=Excellent
EXTT0=
EXTT1=
EXTT2=
EXTT3=
EXTT4=
EXTT5=
EXTT6=
EXTT7=
EXTT8=
EXTT9=
EXTT10=
EXTT11=
EXTT12=
EXTT13=
PLAYORDER=
